Hanif_Medium_7_5_grf.mot
version=1
nRows=53
nColumns=19
inDegrees=yes
endheader
time	right_ground_force_vx	right_ground_force_vy	right_ground_force_vz	right_ground_force_px	right_ground_force_py	right_ground_force_pz	right_ground_torque_x	right_ground_torque_y	right_ground_torque_z	left_ground_force_vx	left_ground_force_vy	left_ground_force_vz	left_ground_force_px	left_ground_force_py	left_ground_force_pz	left_ground_torque_x	left_ground_torque_y	left_ground_torque_z
1.550000	0.592171	327.181000	39.777300	0.177069	0.000000	-1.449020	-18.633600	5.446860	-6.955310	6.818350	322.575000	-43.164500	0.195349	0.000000	-0.968281	20.917700	-7.285600	-0.611716
1.555000	0.582034	326.452000	39.404600	0.176647	0.000000	-1.448520	-18.756800	5.305090	-7.098410	6.452030	321.988000	-43.714500	0.195230	0.000000	-0.967759	20.715500	-7.411400	-0.614854
1.560000	0.009327	324.178000	38.851200	0.175848	0.000000	-1.448770	-18.553100	5.475110	-7.285940	6.914280	321.111000	-43.294700	0.194746	0.000000	-0.968668	20.941900	-7.397400	-0.781500
1.565000	0.370136	323.984000	39.289000	0.175856	0.000000	-1.448890	-18.498900	5.589200	-7.262230	6.396550	321.550000	-42.695100	0.194617	0.000000	-0.968123	20.806800	-7.351700	-0.840688
1.570000	0.663293	324.781000	40.406700	0.175680	0.000000	-1.449140	-18.457400	5.599510	-7.328820	6.388020	321.690000	-42.052500	0.195584	0.000000	-0.967916	20.751500	-7.207240	-0.556916
1.575000	0.581022	324.016000	40.265200	0.175106	0.000000	-1.449130	-18.417500	5.612440	-7.497330	5.300270	322.498000	-41.794500	0.195042	0.000000	-0.967583	20.716900	-7.295550	-0.724535
1.580000	0.484721	322.889000	40.213900	0.175784	0.000000	-1.449430	-18.259500	5.557670	-7.251460	5.049720	320.326000	-41.423600	0.195494	0.000000	-0.967406	20.524800	-7.250800	-0.571895
1.585000	0.562243	322.642000	40.819700	0.174979	0.000000	-1.449080	-18.356400	5.658730	-7.490130	4.700490	320.781000	-41.395600	0.195969	0.000000	-0.968354	20.866000	-7.189370	-0.426527
1.590000	0.399341	324.017000	40.472300	0.174781	0.000000	-1.449420	-18.328700	5.610290	-7.600980	3.971610	321.721000	-41.384900	0.196099	0.000000	-0.968050	20.844100	-7.222220	-0.379899
1.595000	0.862380	321.871000	41.219400	0.174242	0.000000	-1.449590	-18.144200	5.694090	-7.703750	4.224320	322.861000	-41.495300	0.196067	0.000000	-0.968176	20.953900	-7.236900	-0.395964
1.600000	0.147905	322.532000	40.923800	0.174300	0.000000	-1.450420	-17.924000	5.721900	-7.697480	3.545200	322.840000	-41.147800	0.196104	0.000000	-0.968485	21.065500	-7.275350	-0.380649
1.605000	-0.228259	321.935000	40.650000	0.174505	0.000000	-1.449830	-18.086200	5.709460	-7.615970	3.715650	325.066000	-41.046100	0.197002	0.000000	-0.968678	21.271200	-7.232560	-0.107808
1.610000	-0.926356	322.453000	40.544200	0.174100	0.000000	-1.450530	-17.899700	5.707830	-7.759450	3.493560	324.830000	-41.329600	0.196729	0.000000	-0.967538	20.890500	-7.193420	-0.193255
1.615000	-0.937668	321.007000	39.514100	0.174594	0.000000	-1.450310	-17.890600	5.683950	-7.572880	2.166730	324.501000	-41.600200	0.196668	0.000000	-0.968538	21.220900	-7.223190	-0.191156
1.620000	-1.575080	319.895000	39.471400	0.173775	0.000000	-1.449670	-18.042900	5.755420	-7.795810	1.550870	322.284000	-41.729300	0.196677	0.000000	-0.969075	21.261500	-7.197320	-0.170153
1.625000	-1.760670	321.020000	39.222400	0.174522	0.000000	-1.450800	-17.745800	5.667690	-7.596680	0.884856	323.751000	-41.043900	0.197416	0.000000	-0.968094	21.055200	-7.100570	0.042814
1.630000	-1.560090	320.015000	39.015200	0.173590	0.000000	-1.450210	-17.876000	5.674930	-7.874860	1.445720	322.701000	-40.882800	0.197196	0.000000	-0.967923	20.920000	-7.077270	-0.034674
1.635000	-2.192520	318.455000	38.898200	0.173774	0.000000	-1.450090	-17.836200	5.635330	-7.773240	1.061120	322.370000	-41.805500	0.197471	0.000000	-0.968514	21.096900	-7.158490	0.090324
1.640000	-1.690330	317.393000	39.395100	0.173466	0.000000	-1.451270	-17.397800	5.739660	-7.827580	0.838337	321.622000	-41.369600	0.196999	0.000000	-0.968161	20.939000	-7.122500	-0.071973
1.645000	-1.483160	318.070000	39.282100	0.172858	0.000000	-1.451710	-17.288600	5.719360	-8.048570	0.710862	321.276000	-41.195200	0.196829	0.000000	-0.968527	21.036900	-7.068420	-0.135063
1.650000	-1.414760	316.976000	39.542000	0.172408	0.000000	-1.451200	-17.392100	5.799750	-8.148990	0.399856	322.257000	-41.049600	0.197227	0.000000	-0.968116	20.975600	-7.002290	-0.019373
1.655000	-0.604249	315.448000	39.249700	0.172515	0.000000	-1.451530	-17.190700	5.659130	-8.096030	0.581291	320.329000	-40.750800	0.197630	0.000000	-0.968297	20.904100	-6.995290	0.113677
1.660000	-0.228078	313.391000	39.283400	0.171548	0.000000	-1.450580	-17.372100	5.810140	-8.326950	0.039997	318.336000	-40.721200	0.197175	0.000000	-0.968600	20.882000	-7.000750	-0.018795
1.665000	-0.193556	313.320000	39.305000	0.171629	0.000000	-1.451750	-17.000500	5.696470	-8.313080	0.141524	318.213000	-39.985000	0.196563	0.000000	-0.968461	20.827500	-6.997910	-0.232888
1.670000	-0.538368	315.541000	39.025300	0.171769	0.000000	-1.451590	-17.176300	5.677620	-8.338520	-0.380406	316.359000	-39.497000	0.197377	0.000000	-0.967798	20.507800	-7.000220	0.034328
1.675000	-0.298490	314.736000	39.145100	0.170840	0.000000	-1.451830	-17.054100	5.782680	-8.598450	-0.629882	313.558000	-39.066000	0.197337	0.000000	-0.968811	20.649600	-6.982270	0.026974
1.680000	0.482441	312.191000	38.517400	0.170482	0.000000	-1.450900	-17.195600	5.789030	-8.644410	-0.188369	312.907000	-38.660500	0.196169	0.000000	-0.968529	20.508700	-6.987910	-0.352140
1.685000	0.228032	313.170000	38.204300	0.171068	0.000000	-1.452220	-16.838100	5.676740	-8.504590	-0.958600	310.167000	-38.820700	0.196544	0.000000	-0.968165	20.233300	-6.950230	-0.210921
1.690000	0.837515	310.731000	37.991200	0.170105	0.000000	-1.452260	-16.687300	5.792720	-8.725320	-0.128195	308.675000	-38.989200	0.196751	0.000000	-0.968604	20.253000	-6.902510	-0.145906
1.695000	0.871547	312.821000	38.690000	0.169994	0.000000	-1.452350	-16.769600	5.707480	-8.829820	-0.036428	312.024000	-39.152900	0.196289	0.000000	-0.967892	20.248600	-6.991930	-0.298568
1.700000	0.965537	310.882000	38.195100	0.169228	0.000000	-1.452310	-16.676300	5.740700	-9.011910	0.498882	309.088000	-38.899000	0.196835	0.000000	-0.968179	20.135200	-6.950370	-0.123123
1.705000	1.788720	310.958000	38.020900	0.169586	0.000000	-1.452980	-16.460200	5.811080	-8.899800	0.587915	306.308000	-38.397300	0.196702	0.000000	-0.968565	20.070000	-6.974640	-0.156685
1.710000	1.618750	309.498000	38.663100	0.169135	0.000000	-1.452560	-16.514900	5.868740	-8.979290	0.533191	306.204000	-38.244500	0.196421	0.000000	-0.967644	19.782500	-7.013140	-0.241508
1.715000	1.913340	309.810000	38.876700	0.168756	0.000000	-1.452980	-16.397400	5.849480	-9.110760	0.934511	304.786000	-37.856200	0.196372	0.000000	-0.968034	19.800800	-6.988490	-0.262258
1.720000	2.396880	310.170000	38.844100	0.169008	0.000000	-1.452710	-16.492400	5.910600	-9.039290	0.444607	302.197000	-37.723000	0.195618	0.000000	-0.968644	19.827400	-6.965620	-0.478930
1.725000	2.362900	307.714000	39.052900	0.168530	0.000000	-1.453460	-16.131600	5.972480	-9.097370	0.485435	302.480000	-37.475200	0.196007	0.000000	-0.967853	19.605800	-6.997620	-0.363221
1.730000	1.978190	308.726000	38.622100	0.168606	0.000000	-1.452640	-16.444400	5.971520	-9.109840	0.795198	299.476000	-36.913600	0.196182	0.000000	-0.969161	19.795600	-7.014260	-0.302716
1.735000	2.234640	309.565000	39.096400	0.167885	0.000000	-1.453500	-16.219000	5.902980	-9.369450	0.885981	301.772000	-37.202200	0.195750	0.000000	-0.967723	19.511600	-7.070540	-0.437409
1.740000	1.806880	306.893000	39.087200	0.167639	0.000000	-1.452680	-16.336500	5.965720	-9.345010	1.205560	300.753000	-37.307700	0.195832	0.000000	-0.968724	19.739400	-7.029700	-0.410780
1.745000	1.471890	307.303000	38.907900	0.168041	0.000000	-1.452810	-16.323200	6.008390	-9.227760	0.804549	300.245000	-36.970100	0.195395	0.000000	-0.968075	19.519900	-7.138340	-0.530960
1.750000	1.724540	307.619000	39.487100	0.167761	0.000000	-1.452860	-16.319500	6.049510	-9.316010	1.587060	298.622000	-37.162200	0.195089	0.000000	-0.969297	19.761800	-7.080830	-0.621293
1.755000	1.592700	310.194000	38.887200	0.168289	0.000000	-1.453490	-16.263800	5.971610	-9.253050	1.224370	299.129000	-37.220800	0.195642	0.000000	-0.968468	19.555400	-7.062130	-0.455070
1.760000	1.218620	306.727000	39.047500	0.168827	0.000000	-1.453460	-16.097500	6.005740	-8.960090	1.856940	298.055000	-37.117300	0.194895	0.000000	-0.968137	19.371800	-7.161280	-0.668433
1.765000	0.934751	306.587000	39.449500	0.168276	0.000000	-1.452900	-16.266000	6.038620	-9.116420	2.108680	296.611000	-36.872300	0.195120	0.000000	-0.968855	19.485600	-7.050830	-0.610663
1.770000	0.916649	307.961000	39.035300	0.168291	0.000000	-1.454550	-15.831100	5.996980	-9.167760	1.953660	296.602000	-36.687400	0.195596	0.000000	-0.968121	19.269700	-7.190820	-0.452458
1.775000	1.191350	305.891000	39.442200	0.167245	0.000000	-1.453110	-16.160800	6.004180	-9.419860	2.061050	297.085000	-36.671100	0.196029	0.000000	-0.968581	19.436600	-7.012150	-0.348712
1.780000	0.786488	303.962000	39.548300	0.168057	0.000000	-1.454050	-15.779300	5.956580	-9.104000	2.060280	294.224000	-36.634100	0.195413	0.000000	-0.969241	19.441900	-7.143860	-0.498093
1.785000	0.885997	303.415000	39.535700	0.167541	0.000000	-1.453840	-15.812400	5.988660	-9.241320	2.667920	296.978000	-36.636200	0.195327	0.000000	-0.968317	19.336900	-7.112830	-0.552924
1.790000	0.782209	304.674000	39.461900	0.167771	0.000000	-1.454650	-15.634200	6.009660	-9.210930	2.413020	296.289000	-37.003200	0.195469	0.000000	-0.968572	19.372000	-7.222830	-0.481003
1.795000	0.860235	302.352000	39.284100	0.167138	0.000000	-1.453540	-15.849400	5.989390	-9.331180	1.971080	296.164000	-37.402300	0.195556	0.000000	-0.968567	19.372800	-7.178000	-0.446883
1.800000	0.140699	304.016000	38.946700	0.167453	0.000000	-1.453930	-15.829300	6.047590	-9.283400	1.798340	295.608000	-37.584300	0.195514	0.000000	-0.968072	19.193900	-7.164860	-0.451586
1.805000	0.435715	302.923000	39.003300	0.167029	0.000000	-1.453960	-15.756300	5.879320	-9.399100	2.490470	295.473000	-37.042300	0.195352	0.000000	-0.969023	19.450600	-7.161310	-0.517669
1.810000	0.676854	305.779000	40.025100	0.167559	0.000000	-1.454670	-15.684200	5.953980	-9.314890	2.111350	296.145000	-37.324100	0.195970	0.000000	-0.968138	19.241000	-7.184320	-0.324232
